# Blender 4.3.2
# www.blender.org
o Cube
v 0.260446 0.072251 0.407735
v 0.164314 0.200000 0.328628
v 0.203868 0.072251 0.520892
v 0.260446 -0.072251 0.407735
v 0.203868 -0.072251 0.520892
v 0.164314 -0.200000 0.328628
v -0.260446 0.072251 0.407735
v -0.203868 0.072251 0.520892
v -0.164314 0.200000 0.328628
v -0.164314 -0.200000 0.328628
v -0.203868 -0.072251 0.520892
v -0.260446 -0.072251 0.407735
v -0.300000 -0.109543 0.271372
v -0.274065 -0.144080 -0.361089
v -0.164314 -0.200000 0.271372
v 0.164314 0.200000 0.271372
v 0.300000 0.109543 0.271372
v 0.274065 0.144080 -0.361089
v -0.164314 0.200000 0.271372
v -0.274065 0.144080 -0.361089
v -0.300000 0.109543 0.271372
v 0.164314 -0.200000 0.271372
v 0.274065 -0.144080 -0.361089
v 0.300000 -0.109543 0.271372
v 0.230936 0.115328 -0.510283
v 0.230936 -0.115328 -0.510283
v -0.230936 0.115328 -0.510283
v -0.230936 -0.115328 -0.510283
v 0.164314 0.109543 0.600000
v 0.300000 0.109543 0.328628
v 0.300000 -0.109543 0.328628
v 0.164314 -0.109543 0.600000
v -0.300000 0.109543 0.328628
v -0.164314 0.109543 0.600000
v -0.164314 -0.109543 0.600000
v -0.300000 -0.109543 0.328628
v 0.300000 -0.200000 -0.271372
v 0.300000 0.200000 -0.271372
v -0.300000 0.200000 -0.271372
v -0.300000 -0.200000 -0.271372
v 0.205000 0.136667 -0.600000
v 0.205000 -0.136667 -0.600000
v -0.205000 -0.136667 -0.600000
v -0.205000 0.136667 -0.600000
v 0.203868 0.072251 0.520892
v 0.260446 0.072251 0.407735
v 0.260446 -0.072251 0.407735
v 0.203868 -0.072251 0.520892
v -0.260446 0.072251 0.407735
v -0.203868 0.072251 0.520892
v -0.203868 -0.072251 0.520892
v -0.260446 -0.072251 0.407735
v 0.274065 -0.144080 -0.361089
v 0.274065 0.144080 -0.361089
v -0.274065 0.144080 -0.361089
v -0.274065 -0.144080 -0.361089
v 0.230936 0.115328 -0.510283
v 0.230936 -0.115328 -0.510283
v -0.230936 -0.115328 -0.510283
v -0.230936 0.115328 -0.510283
v 0.628132 0.100000 1.369421
v 0.684710 0.100000 1.256264
v 0.684710 -0.100000 1.256264
v 0.628132 -0.100000 1.369421
v -0.684710 0.100000 1.256264
v -0.628132 0.100000 1.369421
v -0.628132 -0.100000 1.369421
v -0.684710 -0.100000 1.256264
v 0.793498 -0.100000 -0.961720
v 0.793498 0.100000 -0.961720
v -0.793498 0.100000 -0.961720
v -0.793498 -0.100000 -0.961720
v 0.750369 0.100000 -1.110914
v 0.750369 -0.100000 -1.110914
v -0.750369 -0.100000 -1.110914
v -0.750369 0.100000 -1.110914
vn -0.0000 -1.0000 -0.0000
vn -0.0000 1.0000 -0.0000
vn -0.0000 -0.9819 -0.1892
vn -1.0000 -0.0000 -0.0000
vn -0.0000 -0.0000 1.0000
vn -0.0000 0.9819 -0.1892
vn 0.5345 0.8018 0.2673
vn 0.5345 -0.8018 0.2673
vn -0.5345 0.8018 0.2673
vn -0.5345 -0.8018 0.2673
vn -0.5494 -0.8242 0.1374
vn 0.5494 0.8242 0.1374
vn -0.5494 0.8242 0.1374
vn 0.5494 -0.8242 0.1374
vn -0.5547 -0.8320 -0.0000
vn -0.0000 0.9487 0.3162
vn 0.5547 0.8320 -0.0000
vn -0.0000 -0.9487 0.3162
vn -0.5547 0.8320 -0.0000
vn 0.5547 -0.8320 -0.0000
vn 1.0000 -0.0000 -0.0000
vn -0.0000 -0.0000 -1.0000
vn 0.8944 -0.0000 0.4472
vn -0.8944 -0.0000 0.4472
vn 0.9607 -0.0000 -0.2777
vn -0.9607 -0.0000 -0.2777
vn 0.8944 -0.0000 -0.4472
vn 0.1015 0.9819 -0.1599
vn 0.0221 0.9997 -0.0064
vn -0.0327 0.9993 -0.0163
vn -0.0221 -0.9997 -0.0064
vn 0.7564 -0.0000 0.6541
vn -0.0327 -0.9993 -0.0163
vn -0.7564 -0.0000 0.6541
vn 0.0327 0.9993 -0.0163
vn -0.7564 -0.0000 -0.6541
vn 0.0327 -0.9993 -0.0163
vn 0.7564 -0.0000 -0.6541
vn -0.1015 -0.9819 -0.1599
vn -0.8944 -0.0000 -0.4472
vn -0.0221 0.9997 -0.0064
vn -0.1015 0.9819 -0.1599
vn 0.1015 -0.9819 -0.1599
vn 0.0221 -0.9997 -0.0064
vt 0.318464 0.681536
vt 0.181536 0.693464
vt 0.181536 0.681536
vt 0.818464 0.681536
vt 0.681536 0.693464
vt 0.681536 0.681536
vt 0.125000 0.522107
vt 0.375000 0.568464
vt 0.125000 0.568464
vt 0.568464 0.056536
vt 0.431536 0.068464
vt 0.431536 0.056536
vt 0.568464 0.806536
vt 0.431536 0.943464
vt 0.431536 0.806536
vt 0.625000 0.522107
vt 0.875000 0.568464
vt 0.625000 0.568464
vt 0.598826 0.194192
vt 0.595728 0.215237
vt 0.568464 0.693464
vt 0.625000 0.693464
vt 0.568464 0.750000
vt 0.375000 0.693464
vt 0.318464 0.750000
vt 0.318464 0.693464
vt 0.568464 0.000000
vt 0.625000 0.056536
vt 0.181536 0.750000
vt 0.125000 0.693464
vt 0.125000 0.681536
vt 0.125000 0.625000
vt 0.568464 0.681536
vt 0.625000 0.068464
vt 0.625000 0.125000
vt 0.568464 0.068464
vt 0.431536 0.681536
vt 0.454843 0.726426
vt 0.545157 0.726426
vt 0.595728 0.534763
vt 0.598826 0.555808
vt 0.818464 0.693464
vt 0.681536 0.750000
vt 0.431536 0.693464
vt 0.375000 0.181536
vt 0.625000 0.181536
vt 0.585417 0.289583
vt 0.414583 0.460417
vt 0.414583 0.289583
vt 0.545157 0.773574
vt 0.454843 0.773574
vt 0.545157 0.016481
vt 0.545157 0.040055
vt 0.454843 0.040055
vt 0.431536 0.000000
vt 0.454843 0.016481
vt 0.401174 0.555808
vt 0.401174 0.194192
vt 0.404272 0.534763
vt 0.375000 0.227893
vt 0.404272 0.215237
vt 0.375000 0.522107
vt 0.625000 0.227893
vt 0.568464 0.943464
vt 0.875000 0.522107
vt 0.818464 0.750000
vt 0.585417 0.460417
s 0
f 22/1/1 10/2/1 15/3/1
f 19/4/2 2/5/2 16/6/2
f 43/7/3 37/8/3 40/9/3
f 33/10/4 13/11/4 36/12/4
f 29/13/5 35/14/5 32/15/5
f 41/16/6 39/17/6 38/18/6
f 20/19/2 60/20/2 55/19/2
f 30/21/7 2/22/7 29/23/7
f 31/24/8 32/25/8 6/26/8
f 33/10/9 34/27/9 9/28/9
f 10/2/10 35/29/10 36/30/10
f 13/31/11 40/32/11 15/3/11
f 16/6/12 17/33/12 38/18/12
f 19/34/13 39/35/13 21/36/13
f 22/1/14 37/8/14 24/37/14
f 10/2/15 13/31/15 15/3/15
f 4/38/2 46/39/2 47/38/2
f 25/40/2 54/41/2 57/40/2
f 9/42/16 29/43/16 2/5/16
f 2/5/17 17/33/17 16/6/17
f 6/26/18 35/29/18 10/2/18
f 19/34/19 33/10/19 9/28/19
f 22/1/20 31/44/20 6/26/20
f 17/33/21 37/8/21 38/18/21
f 22/1/1 40/9/1 37/8/1
f 40/45/4 21/36/4 39/46/4
f 19/4/2 38/18/2 39/17/2
f 17/33/21 31/44/21 24/37/21
f 44/47/22 42/48/22 43/49/22
f 3/50/2 48/51/2 45/50/2
f 1/39/23 29/13/23 3/50/23
f 5/51/23 31/44/23 4/38/23
f 8/52/24 33/10/24 7/53/24
f 12/54/24 35/55/24 11/56/24
f 11/56/24 34/27/24 8/52/24
f 7/53/24 36/12/24 12/54/24
f 3/50/23 32/15/23 5/51/23
f 4/38/23 30/21/23 1/39/23
f 18/41/25 37/8/25 23/57/25
f 14/58/26 39/46/26 20/19/26
f 26/59/25 41/16/25 25/40/25
f 27/20/26 43/60/26 28/61/26
f 23/57/25 42/62/25 26/59/25
f 18/41/25 41/16/25 38/18/25
f 20/19/26 44/63/26 27/20/26
f 14/58/26 43/60/26 40/45/26
f 46/39/27 63/38/27 47/38/27
f 60/20/28 71/19/28 55/19/28
f 48/51/24 61/50/24 45/50/24
f 57/40/29 70/41/29 73/40/29
f 1/39/2 45/50/2 46/39/2
f 28/61/2 56/58/2 59/61/2
f 5/51/2 47/38/2 48/51/2
f 18/41/2 53/57/2 54/41/2
f 8/52/2 49/53/2 50/52/2
f 14/58/2 55/19/2 56/58/2
f 12/54/2 51/56/2 52/54/2
f 26/59/2 57/40/2 58/59/2
f 11/56/2 50/52/2 51/56/2
f 27/20/2 59/61/2 60/20/2
f 7/53/2 52/54/2 49/53/2
f 23/57/2 58/59/2 53/57/2
f 71/19/26 75/61/26 72/58/26
f 66/52/24 68/54/24 67/56/24
f 64/51/23 62/39/23 61/50/23
f 73/40/25 69/57/25 74/59/25
f 45/50/30 62/39/30 46/39/30
f 59/61/31 72/58/31 75/61/31
f 54/41/32 69/57/32 70/41/32
f 47/38/33 64/51/33 48/51/33
f 56/58/34 71/19/34 72/58/34
f 49/53/35 66/52/35 50/52/35
f 57/40/36 74/59/36 58/59/36
f 51/56/37 68/54/37 52/54/37
f 59/61/38 76/20/38 60/20/38
f 50/52/23 67/56/23 51/56/23
f 58/59/39 69/57/39 53/57/39
f 52/54/40 65/53/40 49/53/40
f 22/1/1 6/26/1 10/2/1
f 19/4/2 9/42/2 2/5/2
f 43/7/3 42/62/3 37/8/3
f 33/10/4 21/36/4 13/11/4
f 29/13/5 34/64/5 35/14/5
f 41/16/6 44/65/6 39/17/6
f 20/19/2 27/20/2 60/20/2
f 10/2/15 36/30/15 13/31/15
f 4/38/2 1/39/2 46/39/2
f 25/40/2 18/41/2 54/41/2
f 9/42/16 34/66/16 29/43/16
f 2/5/17 30/21/17 17/33/17
f 6/26/18 32/25/18 35/29/18
f 19/34/19 21/36/19 33/10/19
f 22/1/20 24/37/20 31/44/20
f 17/33/21 24/37/21 37/8/21
f 22/1/1 15/3/1 40/9/1
f 40/45/4 13/11/4 21/36/4
f 19/4/2 16/6/2 38/18/2
f 17/33/21 30/21/21 31/44/21
f 44/47/22 41/67/22 42/48/22
f 3/50/2 5/51/2 48/51/2
f 1/39/23 30/21/23 29/13/23
f 5/51/23 32/15/23 31/44/23
f 8/52/24 34/27/24 33/10/24
f 12/54/24 36/12/24 35/55/24
f 11/56/24 35/55/24 34/27/24
f 7/53/24 33/10/24 36/12/24
f 3/50/23 29/13/23 32/15/23
f 4/38/23 31/44/23 30/21/23
f 18/41/25 38/18/25 37/8/25
f 14/58/26 40/45/26 39/46/26
f 26/59/25 42/62/25 41/16/25
f 27/20/26 44/63/26 43/60/26
f 23/57/25 37/8/25 42/62/25
f 18/41/25 25/40/25 41/16/25
f 20/19/26 39/46/26 44/63/26
f 14/58/26 28/61/26 43/60/26
f 46/39/27 62/39/27 63/38/27
f 60/20/41 76/20/41 71/19/41
f 48/51/24 64/51/24 61/50/24
f 57/40/42 54/41/42 70/41/42
f 1/39/2 3/50/2 45/50/2
f 28/61/2 14/58/2 56/58/2
f 5/51/2 4/38/2 47/38/2
f 18/41/2 23/57/2 53/57/2
f 8/52/2 7/53/2 49/53/2
f 14/58/2 20/19/2 55/19/2
f 12/54/2 11/56/2 51/56/2
f 26/59/2 25/40/2 57/40/2
f 11/56/2 8/52/2 50/52/2
f 27/20/2 28/61/2 59/61/2
f 7/53/2 12/54/2 52/54/2
f 23/57/2 26/59/2 58/59/2
f 71/19/26 76/20/26 75/61/26
f 66/52/24 65/53/24 68/54/24
f 64/51/23 63/38/23 62/39/23
f 73/40/25 70/41/25 69/57/25
f 45/50/30 61/50/30 62/39/30
f 59/61/43 56/58/43 72/58/43
f 54/41/32 53/57/32 69/57/32
f 47/38/33 63/38/33 64/51/33
f 56/58/34 55/19/34 71/19/34
f 49/53/35 65/53/35 66/52/35
f 57/40/36 73/40/36 74/59/36
f 51/56/37 67/56/37 68/54/37
f 59/61/38 75/61/38 76/20/38
f 50/52/23 66/52/23 67/56/23
f 58/59/44 74/59/44 69/57/44
f 52/54/40 68/54/40 65/53/40
